<?xml version="1.0" encoding="UTF-8"?>
<svg xmlns="http://www.w3.org/2000/svg" viewBox="0 0 1000 1000">
  <circle cx="500" cy="500" r="500" fill="#2D374B"/>
  <path d="M671.4,356.7l-0.1-1.2l-3.6-11.2l-8.8-8.8l-150.5-87.1l-14.7-1.3l-14.7,1.3l-150.5,87.1l-8.8,8.8l-3.6,11.2 l-0.1,1.2l-0.5,287.6l3.6,11.2l8.8,8.8l150.5,87.1l14.7,1.3l14.7-1.3l150.5-87.1l8.8-8.8l3.6-11.2L671.4,356.7z M493.7,279.3 l137.6,79.7l-51.3,29.7l-86.3-49.9V279.3z M458.8,279.3v59.5l-86.3,49.9l-51.3-29.7L458.8,279.3z M307.3,389.9l36.8,21.3v169.7 l-36.8-21.3V389.9z M344.1,611.8l86.3,49.9v59.5l-137.6-79.7L344.1,611.8z M458.8,721.2v-59.5l86.3-49.9l51.3,29.7L458.8,721.2z M645.2,559.5l-36.8,21.3V411.1l36.8-21.3V559.5z" fill="white"/>
</svg>
