<?xml version="1.0" encoding="UTF-8"?>
<svg xmlns="http://www.w3.org/2000/svg" viewBox="0 0 1503 1504">
  <path fill="#E84142" d="M1502.8,1016.2c0,270.6-219.2,487.8-487.8,487.8H487.8C219.2,1504,0,1284.8,0,1016.2V487.8C0,219.2,219.2,0,487.8,0h527.2c268.6,0,487.8,219.2,487.8,487.8V1016.2z"/>
  <path fill="#FFFFFF" d="M647.5,398.4c11.9-29.8,55.8-29.8,67.7,0l189.2,472.9c5,11.9,5,23.8,0,35.7c-5,11.9-14.9,17.9-26.8,17.9h-78.6c-17.9,0-31.8-9.9-41.7-29.8l-23.8-59.7h-107.4l-23.8,59.7c-7.9,19.9-23.8,29.8-41.7,29.8h-78.6c-11.9,0-21.9-5-26.8-17.9c-5-11.9-5-23.8,0-35.7L647.5,398.4z M687.2,667.9l-31.8-79.6l-31.8,79.6H687.2z"/>
  <path fill="#FFFFFF" d="M1139.1,924.9h-78.6c-17.9,0-31.8-13.9-31.8-31.8V398.4c0-17.9,13.9-31.8,31.8-31.8h78.6c17.9,0,31.8,13.9,31.8,31.8v494.8C1170.9,911,1157,924.9,1139.1,924.9z"/>
  <path fill="#FFFFFF" d="M1057.5,1105.8c-5,11.9-14.9,17.9-26.8,17.9h-78.6c-11.9,0-21.9-5-26.8-17.9c-5-11.9-5-23.8,0-35.7l71.7-179.3c11.9-29.8,55.8-29.8,67.7,0l71.7,179.3C1062.5,1082,1062.5,1093.9,1057.5,1105.8z"/>
</svg>
