<?xml version="1.0" encoding="UTF-8"?>
<svg xmlns="http://www.w3.org/2000/svg" viewBox="0 0 2500 2500">
  <path d="M1250,0C559.64,0,0,559.64,0,1250S559.64,2500,1250,2500,2500,1940.36,2500,1250,1940.36,0,1250,0" fill="#f0b90b"/>
  <path d="M1250,298.4l572.1,572.1-168,168-404.1-404-404,404.1-168-168,572-572.2m0,600.9l168,168-168,168-168-168,168-168" fill="#fff"/>
  <path d="M714.3,1250l168,168,168-168-168-168-168,168" fill="#fff"/>
  <path d="M1250,1785.8l-168-168,168-168,168,168-168,168" fill="#fff"/>
  <path d="M1585.8,1250l168-168,168,168-168,168-168-168" fill="#fff"/>
</svg>
