<?xml version="1.0" encoding="UTF-8"?>
<svg xmlns="http://www.w3.org/2000/svg" viewBox="0 0 500 500">
  <circle cx="250" cy="250" r="250" fill="#FF0420"/>
  <path d="M177.1,316.4c-14.9,0-27.1-3.5-36.6-10.5c-9.4-7.1-14.1-17.3-14.1-30.7c0-2.7,0.2-5.5,0.7-8.4c0.5-2.9,1.1-5.9,1.9-8.9 l18.7-65.5h36.1l-17.2,60.3c-0.5,1.6-0.9,3.3-1.2,5.1c-0.3,1.8-0.5,3.5-0.5,5.1c0,5.5,1.6,9.5,4.9,12c3.3,2.5,7.9,3.7,14,3.7 c7.7,0,14.1-1.8,19.1-5.3c5-3.5,8.6-8.7,10.7-15.6l17.2-60.3h35.9l-17.2,60.3c-4.5,15.6-12.5,27.4-24,35.4 C213.9,312.4,197.5,316.4,177.1,316.4z M263.7,314.7l25.4-89.1h35.9l-25.4,89.1H263.7z M296.8,213.9c-6.1,0-11.2-1.6-15.4-4.9 c-4.2-3.3-6.3-8-6.3-14.2c0-6.8,2.3-12.3,7-16.5c4.7-4.2,10.6-6.3,17.7-6.3c6.1,0,11.2,1.6,15.4,4.9c4.2,3.3,6.3,8,6.3,14.2 c0,6.8-2.3,12.3-7,16.5C309.8,211.8,303.9,213.9,296.8,213.9z" fill="white"/>
</svg>
