<?xml version="1.0" encoding="UTF-8"?>
<svg width="512" height="512" viewBox="0 0 512 512" fill="none" xmlns="http://www.w3.org/2000/svg">
  <rect width="512" height="512" rx="256" fill="#1FC7D4"/>
  <path d="M256 120c-33.1 0-60 26.9-60 60 0 1.1 0.1 2.2 0.2 3.3 0.3 2.6 2.8 4.3 5.4 3.5 10.8-3.2 23.9-5.1 38.1-5.1 14.6 0 28.1 2 39.1 5.3 2.6 0.8 5.1-0.9 5.4-3.5 0.1-1.1 0.2-2.2 0.2-3.3 0-33.1-26.9-60-60-60z" fill="white"/>
  <path d="M256 392c33.1 0 60-26.9 60-60 0-1.1-0.1-2.2-0.2-3.3-0.3-2.6-2.8-4.3-5.4-3.5-10.8 3.2-23.9 5.1-38.1 5.1-14.6 0-28.1-2-39.1-5.3-2.6-0.8-5.1 0.9-5.4 3.5-0.1 1.1-0.2 2.2-0.2 3.3 0 33.1 26.9 60 60 60z" fill="white"/>
  <path d="M392 256c0-33.1-26.9-60-60-60-1.1 0-2.2 0.1-3.3 0.2-2.6 0.3-4.3 2.8-3.5 5.4 3.2 10.8 5.1 23.9 5.1 38.1 0 14.6-2 28.1-5.3 39.1-0.8 2.6 0.9 5.1 3.5 5.4 1.1 0.1 2.2 0.2 3.3 0.2 33.1 0 60-26.9 60-60z" fill="white"/>
  <path d="M120 256c0 33.1 26.9 60 60 60 1.1 0 2.2-0.1 3.3-0.2 2.6-0.3 4.3-2.8 3.5-5.4-3.2-10.8-5.1-23.9-5.1-38.1 0-14.6 2-28.1 5.3-39.1 0.8-2.6-0.9-5.1-3.5-5.4-1.1-0.1-2.2-0.2-3.3-0.2-33.1 0-60 26.9-60 60z" fill="white"/>
  <circle cx="256" cy="256" r="60" fill="#633001"/>
  <circle cx="256" cy="256" r="40" fill="#FEDC90"/>
  <circle cx="256" cy="256" r="25" fill="#D1884F"/>
</svg>
