<?xml version="1.0" encoding="UTF-8"?>
<svg width="512" height="512" viewBox="0 0 512 512" fill="none" xmlns="http://www.w3.org/2000/svg">
  <rect width="512" height="512" rx="256" fill="#FF007A"/>
  <path d="M392.4 296.9c-5.6-5.6-14.6-5.6-20.2 0l-30.4 30.4c-5.6 5.6-5.6 14.6 0 20.2 5.6 5.6 14.6 5.6 20.2 0l30.4-30.4c5.6-5.6 5.6-14.6 0-20.2z" fill="white"/>
  <path d="M151.3 155.8c-5.6-5.6-14.6-5.6-20.2 0l-30.4 30.4c-5.6 5.6-5.6 14.6 0 20.2 5.6 5.6 14.6 5.6 20.2 0l30.4-30.4c5.6-5.6 5.6-14.6 0-20.2z" fill="white"/>
  <path d="M296.9 119.6c5.6-5.6 5.6-14.6 0-20.2-5.6-5.6-14.6-5.6-20.2 0l-30.4 30.4c-5.6 5.6-5.6 14.6 0 20.2 5.6 5.6 14.6 5.6 20.2 0l30.4-30.4z" fill="white"/>
  <path d="M155.8 360.7c5.6-5.6 5.6-14.6 0-20.2-5.6-5.6-14.6-5.6-20.2 0l-30.4 30.4c-5.6 5.6-5.6 14.6 0 20.2 5.6 5.6 14.6 5.6 20.2 0l30.4-30.4z" fill="white"/>
  <path d="M256 128c-70.7 0-128 57.3-128 128s57.3 128 128 128 128-57.3 128-128-57.3-128-128-128zm0 192c-35.3 0-64-28.7-64-64s28.7-64 64-64 64 28.7 64 64-28.7 64-64 64z" fill="white"/>
  <path d="M256 160c-53 0-96 43-96 96s43 96 96 96 96-43 96-96-43-96-96-96zm0 160c-35.3 0-64-28.7-64-64s28.7-64 64-64 64 28.7 64 64-28.7 64-64 64z" fill="#FF007A" stroke="white" stroke-width="4"/>
</svg>
